<?xml version="1.0" encoding="utf-8"?>
<!-- Generator: Adobe Illustrator 27.8.0, SVG Export Plug-In . SVG Version: 6.00 Build 0)  -->
<svg version="1.1" id="Capa_1" xmlns="http://www.w3.org/2000/svg" xmlns:xlink="http://www.w3.org/1999/xlink" x="0px" y="0px"
	 viewBox="0 0 1080 370" style="enable-background:new 0 0 1080 370;" xml:space="preserve">
<style type="text/css">
	.st0{fill:#003973;}
	.st1{fill:#6C97FF;}
	.st2{fill:#F39200;}
</style>
<g>
	<g>
		<path class="st0" d="M352.03,152.5c7.04-6.94,15.68-10.41,25.94-10.41c3.42,0,6.66,0.38,9.72,1.13c3.06,0.76,5.57,1.68,7.55,2.76
			c1.97,1.09,3.68,2.19,5.13,3.3s2.5,2.07,3.16,2.86l0.99,1.08l-11.05,9.67c-0.13-0.2-0.33-0.44-0.59-0.74
			c-0.26-0.3-0.89-0.84-1.87-1.63c-0.99-0.79-2.02-1.5-3.11-2.12c-1.09-0.62-2.55-1.18-4.39-1.68c-1.84-0.49-3.75-0.74-5.72-0.74
			c-6.12,0-11.18,2.07-15.19,6.21c-4.01,4.14-6.02,9.27-6.02,15.39c0,6.18,2.01,11.34,6.02,15.49s9.07,6.21,15.19,6.21
			c2.1,0,4.11-0.28,6.02-0.84c1.91-0.56,3.49-1.22,4.74-1.97c1.25-0.76,2.33-1.53,3.25-2.32c0.92-0.79,1.61-1.45,2.07-1.97
			l0.59-0.89l10.65,9.47c-0.26,0.33-0.62,0.77-1.08,1.33c-0.46,0.56-1.51,1.55-3.16,2.96c-1.64,1.42-3.45,2.66-5.43,3.75
			c-1.97,1.08-4.57,2.07-7.79,2.96s-6.61,1.33-10.16,1.33c-10.26,0-18.82-3.37-25.7-10.11c-6.87-6.74-10.31-15.11-10.31-25.11
			C341.47,167.9,344.99,159.43,352.03,152.5z"/>
		<path class="st0" d="M444.07,185.3v-2.17c0-3.49-1.07-6.18-3.21-8.09c-2.14-1.91-4.95-2.86-8.43-2.86c-2.3,0-4.51,0.33-6.61,0.99
			c-2.1,0.66-3.65,1.31-4.64,1.97l-1.38,0.99l-5.82-9.17c0.59-0.53,1.43-1.15,2.52-1.87c1.08-0.72,3.47-1.71,7.15-2.96
			c3.68-1.25,7.56-1.87,11.64-1.87c7.17,0,12.81,2.04,16.92,6.12c4.11,4.08,6.16,9.73,6.16,16.97v28.81h-11.15l-1.09-4.34
			c-3.88,3.55-9.07,5.33-15.59,5.33c-5.98,0-10.74-1.43-14.25-4.29c-3.52-2.86-5.28-6.59-5.28-11.2c0-4.6,1.84-8.42,5.52-11.44
			c3.68-3.02,8.52-4.54,14.5-4.54C436.24,181.65,440.58,182.86,444.07,185.3z M441.95,202.02c1.74-1.28,2.62-2.94,2.62-4.98
			c0-1.97-0.89-3.62-2.66-4.93c-1.78-1.32-4.14-1.97-7.1-1.97c-2.83,0-5.11,0.66-6.85,1.97c-1.74,1.31-2.62,2.96-2.62,4.93
			c0,2.04,0.86,3.7,2.57,4.98s4.01,1.92,6.9,1.92C437.82,203.94,440.21,203.3,441.95,202.02z"/>
		<path class="st0" d="M469.72,161.23h11.94l1.18,7.6c4.14-5.72,9.77-8.58,16.87-8.58c6.77,0,12.58,2.52,17.41,7.55
			c4.83,5.03,7.25,11.23,7.25,18.59c0,7.43-2.47,13.74-7.4,18.94c-4.93,5.2-10.85,7.79-17.76,7.79c-6.31,0-11.38-2.24-15.19-6.71
			v21.51h-14.3V161.23z M506.27,196.15c2.53-2.56,3.8-5.72,3.8-9.47c0-3.75-1.27-6.9-3.8-9.47c-2.53-2.56-5.71-3.85-9.52-3.85
			c-3.75,0-6.89,1.28-9.42,3.85c-2.53,2.57-3.8,5.72-3.8,9.47c0,3.75,1.27,6.91,3.8,9.47c2.53,2.57,5.67,3.85,9.42,3.85
			C500.57,199.99,503.74,198.71,506.27,196.15z"/>
		<path class="st0" d="M545.69,189.44c0.53,3.42,2.04,6.16,4.54,8.24c2.5,2.07,5.62,3.11,9.37,3.11c2.63,0,5.06-0.51,7.3-1.53
			c2.24-1.02,3.81-2.05,4.73-3.11l1.38-1.48l8.48,8.19c-0.2,0.26-0.48,0.62-0.84,1.08c-0.36,0.46-1.22,1.28-2.57,2.47
			c-1.35,1.18-2.83,2.24-4.44,3.16c-1.61,0.92-3.77,1.74-6.46,2.47c-2.7,0.72-5.56,1.08-8.58,1.08c-7.89,0-14.42-2.5-19.58-7.5
			c-5.16-5-7.74-11.25-7.74-18.74s2.65-13.81,7.94-18.94c5.29-5.13,11.82-7.69,19.58-7.69c7.04,0,13.02,2.4,17.95,7.2
			c4.93,4.8,7.4,10.55,7.4,17.26c0,0.85-0.07,1.68-0.2,2.47c-0.13,0.79-0.26,1.35-0.4,1.68l-0.2,0.59H545.69z M550.32,173.46
			c-2.3,1.84-3.75,4.24-4.34,7.2h24.37c-0.46-2.83-1.81-5.2-4.05-7.1c-2.24-1.91-4.83-2.86-7.79-2.86
			C555.35,170.7,552.62,171.62,550.32,173.46z"/>
		<path class="st1" d="M640.89,192.4c0,5.92-2.3,10.85-6.91,14.8c-4.6,3.95-10.62,5.92-18.05,5.92c-3.22,0-6.33-0.36-9.32-1.08
			c-2.99-0.72-5.47-1.58-7.45-2.57c-1.97-0.99-3.72-1.99-5.23-3.01c-1.51-1.02-2.63-1.89-3.35-2.61l-0.99-1.09l8.88-9.57
			c0.2,0.2,0.49,0.48,0.89,0.84c0.39,0.36,1.22,0.99,2.47,1.87c1.25,0.89,2.55,1.66,3.9,2.32c1.35,0.66,3.02,1.27,5.03,1.82
			c2.01,0.56,4,0.84,5.97,0.84c2.57,0,4.67-0.64,6.31-1.92c1.64-1.28,2.47-2.91,2.47-4.88c0-2.3-1.12-4.36-3.35-6.17
			c-2.23-1.81-6.35-3.93-12.33-6.36c-10.98-4.27-16.47-10.88-16.47-19.83c0-5.72,2.2-10.42,6.61-14.11
			c4.41-3.68,10.19-5.52,17.36-5.52c2.83,0,5.56,0.31,8.19,0.94c2.63,0.62,4.82,1.36,6.56,2.22c1.74,0.85,3.3,1.71,4.69,2.56
			c1.38,0.85,2.37,1.58,2.96,2.17l0.99,0.99l-8.88,9.57c-0.46-0.46-1.08-1.04-1.87-1.73c-0.79-0.69-2.42-1.61-4.88-2.76
			c-2.47-1.15-4.98-1.73-7.55-1.73c-2.76,0-4.92,0.62-6.46,1.87c-1.55,1.25-2.32,2.7-2.32,4.34c0,2.04,0.87,3.8,2.61,5.28
			c1.74,1.48,5.02,3.14,9.82,4.98C634.31,175.92,640.89,183.13,640.89,192.4z"/>
		<path class="st1" d="M669.01,161.23h15.78v11.44h-15.78v20.62c0,4.47,2,6.71,6.02,6.71c1.18,0,2.45-0.08,3.8-0.25
			c1.35-0.17,2.42-0.35,3.21-0.54l1.08-0.3l1.68,11.84c-3.62,1.58-8.09,2.37-13.42,2.37c-5.2,0-9.27-1.4-12.23-4.19
			c-2.96-2.8-4.44-6.79-4.44-11.99v-24.27h-9.37v-11.44h9.37v-12.23h14.3V161.23z"/>
		<path class="st1" d="M737.62,167.69c5.16,4.97,7.74,11.2,7.74,18.69c0,7.5-2.66,13.83-7.99,18.99
			c-5.33,5.16-11.94,7.74-19.83,7.74c-7.89,0-14.42-2.5-19.58-7.5c-5.16-5-7.74-11.25-7.74-18.74s2.66-13.81,7.99-18.94
			c5.33-5.13,11.94-7.69,19.83-7.69C725.93,160.24,732.46,162.72,737.62,167.69z M727.26,196.15c2.53-2.56,3.8-5.72,3.8-9.47
			c0-3.75-1.27-6.9-3.8-9.47c-2.53-2.56-5.71-3.85-9.52-3.85c-3.75,0-6.89,1.28-9.42,3.85c-2.53,2.57-3.8,5.72-3.8,9.47
			c0,3.75,1.27,6.91,3.8,9.47c2.53,2.57,5.67,3.85,9.42,3.85C721.56,199.99,724.73,198.71,727.26,196.15z"/>
		<path class="st1" d="M754.74,161.23h12.72l0.79,9.87c3.55-7.23,9.87-10.85,18.94-10.85l-0.2,14.6h-2.96
			c-10,0-14.99,5.43-14.99,16.28v21.01h-14.3V161.23z"/>
		<path class="st1" d="M805.55,189.44c0.53,3.42,2.04,6.16,4.54,8.24c2.5,2.07,5.62,3.11,9.37,3.11c2.63,0,5.06-0.51,7.3-1.53
			c2.24-1.02,3.81-2.05,4.73-3.11l1.38-1.48l8.48,8.19c-0.2,0.26-0.48,0.62-0.84,1.08c-0.36,0.46-1.22,1.28-2.57,2.47
			c-1.35,1.18-2.83,2.24-4.44,3.16c-1.61,0.92-3.77,1.74-6.46,2.47c-2.7,0.72-5.56,1.08-8.58,1.08c-7.89,0-14.42-2.5-19.58-7.5
			c-5.16-5-7.74-11.25-7.74-18.74s2.65-13.81,7.94-18.94c5.29-5.13,11.82-7.69,19.58-7.69c7.04,0,13.02,2.4,17.95,7.2
			c4.93,4.8,7.4,10.55,7.4,17.26c0,0.85-0.07,1.68-0.2,2.47c-0.13,0.79-0.26,1.35-0.4,1.68l-0.2,0.59H805.55z M810.18,173.46
			c-2.3,1.84-3.75,4.24-4.34,7.2h24.37c-0.46-2.83-1.81-5.2-4.04-7.1c-2.24-1.91-4.83-2.86-7.79-2.86
			C815.21,170.7,812.49,171.62,810.18,173.46z"/>
		<path class="st2" d="M882.7,212.13v-69.05h50.8v13.12h-35.71v14.3h30.78v12.23h-30.78v16.37h36.7v13.02H882.7z"/>
		<path class="st2" d="M952.94,152.5c7.04-6.94,15.69-10.41,25.94-10.41c3.42,0,6.66,0.38,9.72,1.13c3.06,0.76,5.57,1.68,7.55,2.76
			c1.97,1.09,3.68,2.19,5.13,3.3c1.45,1.12,2.5,2.07,3.16,2.86l0.99,1.08l-11.05,9.67c-0.13-0.2-0.33-0.44-0.59-0.74
			c-0.26-0.3-0.89-0.84-1.87-1.63c-0.99-0.79-2.02-1.5-3.11-2.12c-1.08-0.62-2.55-1.18-4.39-1.68c-1.84-0.49-3.75-0.74-5.72-0.74
			c-6.12,0-11.18,2.07-15.19,6.21c-4.01,4.14-6.02,9.27-6.02,15.39c0,6.18,2,11.34,6.02,15.49c4.01,4.14,9.08,6.21,15.19,6.21
			c2.1,0,4.11-0.28,6.02-0.84c1.91-0.56,3.49-1.22,4.73-1.97c1.25-0.76,2.34-1.53,3.26-2.32s1.61-1.45,2.07-1.97l0.59-0.89
			l10.65,9.47c-0.26,0.33-0.62,0.77-1.09,1.33c-0.46,0.56-1.51,1.55-3.16,2.96c-1.64,1.42-3.45,2.66-5.43,3.75
			c-1.97,1.08-4.57,2.07-7.79,2.96s-6.61,1.33-10.16,1.33c-10.26,0-18.83-3.37-25.7-10.11c-6.87-6.74-10.31-15.11-10.31-25.11
			C942.39,167.9,945.9,159.43,952.94,152.5z"/>
	</g>
	<g>
		<path class="st2" d="M143.3,186.32l-11.96,72.91l97.25,51.85l45.26-255.73L164.7,70.67l-10.95,51.9l-4.74-0.84l11.1-52.73
			c0.92-5.2,4.53-9.92,8.15-10.57L274.1,39.58c1.11-0.2,2.12-0.17,3.09-0.05l0.01-0.06l18.53,3.27c4.78,0.84,7.9,5.84,6.96,11.16
			l-47.51,268.44c-0.94,5.32-5.58,8.94-10.36,8.1l-17.27-3.06l0-0.06c-1.35-0.1-2.75-0.52-4.15-1.34l-92.94-54.05
			c-3.17-1.84-4.95-7.52-4.03-12.72l13.64-83.12L143.3,186.32z"/>
		<g>
			<g>
				<path class="st0" d="M237.2,99.57c-1.24-1.05-2.91-1.43-4.48-1.01l-71.9,19.34l-0.03,0.01l-27.71,7.45
					c-1.57-3.76-3.84-9.06-5.18-11.47c-0.24-0.43-0.46-0.91-0.71-1.43c-1.8-3.8-5.55-11.71-17.29-9.82
					c-9.5,1.53-17.14,3.24-17.46,3.31c-2.66,0.6-4.33,3.23-3.73,5.89c0.6,2.66,3.23,4.33,5.89,3.73c0.08-0.02,7.66-1.71,16.86-3.2
					c4.44-0.71,5.18,0.86,6.82,4.31c0.34,0.72,0.67,1.39,1,2c1.48,2.66,4.97,11.09,6.26,14.28l20.12,59.68l3.13,10.45
					c1.8,6,7.94,9.42,13.99,7.8l60.77-16.34c2.63-0.71,4.19-3.41,3.48-6.04c-0.71-2.63-3.41-4.19-6.04-3.48l-60.77,16.34
					c-0.86,0.23-1.73-0.26-1.98-1.11l-1.7-5.67l23.54-6.33l0.03-0.01l28.24-7.59c0,0,0.01,0,0.01,0c0,0,0.01,0,0.01,0l19.98-5.37
					c1.97-0.53,3.41-2.22,3.62-4.25l6.94-67.2C239.08,102.22,238.44,100.63,237.2,99.57z M227.18,121.45l-21.89,5.89l-1.5-10.78
					l24.58-6.61L227.18,121.45z M224.94,143.12l-16.82,4.52l-1.46-10.48l19.44-5.23L224.94,143.12z M182.26,177.47l-3.24-11.79
					l20.87-5.61l1.7,12.2L182.26,177.47z M143.14,154.26l20.98-5.64l2.78,10.12l-20.4,5.49L143.14,154.26z M149.65,173.58
					l19.86-5.34l3.24,11.79l-19.18,5.16L149.65,173.58z M176.42,156.17l-2.78-10.12l23.43-6.3l1.46,10.48L176.42,156.17z
					 M171.03,136.55l-2.86-10.41l26.03-7l1.5,10.78L171.03,136.55z M158.65,128.7l2.86,10.41l-21.53,5.79l-3.46-10.25L158.65,128.7z
					 M222.52,166.65l-11.33,3.05l-1.7-12.2l14.37-3.86L222.52,166.65z"/>
				<path class="st0" d="M165.48,213.84c-7.26,1.95-11.58,9.45-9.62,16.7c1.95,7.26,9.44,11.58,16.7,9.62
					c7.26-1.95,11.57-9.44,9.62-16.7C180.23,216.2,172.74,211.88,165.48,213.84z M170,230.64c-2.01,0.54-4.08-0.65-4.62-2.66
					c-0.54-2.01,0.65-4.08,2.66-4.62c2.01-0.54,4.08,0.66,4.62,2.66C173.21,228.03,172.01,230.1,170,230.64z"/>
				<path class="st0" d="M221.62,198.74c-7.26,1.95-11.58,9.45-9.62,16.7c1.95,7.26,9.45,11.58,16.7,9.62
					c7.26-1.95,11.58-9.45,9.62-16.7C236.37,201.1,228.88,196.79,221.62,198.74z M226.14,215.55c-2.01,0.54-4.08-0.65-4.62-2.66
					c-0.54-2.01,0.65-4.08,2.66-4.62c2.01-0.54,4.08,0.66,4.62,2.66C229.35,212.93,228.15,215.01,226.14,215.55z"/>
			</g>
			<g>
				<path class="st1" d="M117.33,150.43l-19.75,5.31c-2.91,0.78-5.93-0.96-6.71-3.87l0,0c-0.78-2.91,0.96-5.93,3.87-6.71l19.75-5.31
					c2.91-0.78,5.93,0.96,6.71,3.87l0,0C121.98,146.62,120.24,149.65,117.33,150.43z"/>
				<path class="st1" d="M127.69,188.95l-19.75,5.31c-2.91,0.78-5.93-0.96-6.71-3.87l0,0c-0.78-2.91,0.96-5.93,3.87-6.71l19.75-5.31
					c2.91-0.78,5.93,0.96,6.71,3.87l0,0C132.34,185.15,130.6,188.17,127.69,188.95z"/>
				<path class="st1" d="M121.7,169.91l-40.81,10.98c-2.91,0.78-5.93-0.96-6.71-3.87l0,0c-0.78-2.91,0.96-5.93,3.87-6.71
					l40.81-10.98c2.91-0.78,5.93,0.96,6.71,3.87l0,0C126.35,166.1,124.61,169.13,121.7,169.91z"/>
			</g>
		</g>
	</g>
</g>
</svg>
